<mxfile host="app.diagrams.net" agent="Mozilla/5.0 (Macintosh; Intel Mac OS X 10_15_7) AppleWebKit/537.36 (KHTML, like Gecko) Chrome/131.0.0.0 Safari/537.36" version="25.0.3">
  <diagram name="Page-1" id="74e2e168-ea6b-b213-b513-2b3c1d86103e">
    <mxGraphModel dx="954" dy="605" grid="1" gridSize="10" guides="1" tooltips="1" connect="1" arrows="1" fold="1" page="1" pageScale="1" pageWidth="1100" pageHeight="850" background="none" math="0" shadow="0">
      <root>
        <mxCell id="0" />
        <mxCell id="1" parent="0" />
        <mxCell id="z1TU7799TZrfDQ--Ozhm-1" value="" style="rounded=0;whiteSpace=wrap;html=1;" vertex="1" parent="1">
          <mxGeometry x="190" y="150" width="750" height="440" as="geometry" />
        </mxCell>
        <mxCell id="z1TU7799TZrfDQ--Ozhm-2" value="" style="rounded=0;whiteSpace=wrap;html=1;" vertex="1" parent="1">
          <mxGeometry x="200" y="200" width="300" height="380" as="geometry" />
        </mxCell>
        <mxCell id="z1TU7799TZrfDQ--Ozhm-5" value="&lt;font style=&quot;font-size: 14px;&quot;&gt;Closed System&lt;/font&gt;" style="text;html=1;align=center;verticalAlign=middle;whiteSpace=wrap;rounded=0;" vertex="1" parent="1">
          <mxGeometry x="440" y="160" width="130" height="30" as="geometry" />
        </mxCell>
        <mxCell id="z1TU7799TZrfDQ--Ozhm-6" value="" style="shape=cylinder3;whiteSpace=wrap;html=1;boundedLbl=1;backgroundOutline=1;size=15;" vertex="1" parent="1">
          <mxGeometry x="220" y="270" width="60" height="80" as="geometry" />
        </mxCell>
        <mxCell id="z1TU7799TZrfDQ--Ozhm-22" style="edgeStyle=orthogonalEdgeStyle;rounded=0;orthogonalLoop=1;jettySize=auto;html=1;entryX=0;entryY=0.5;entryDx=0;entryDy=0;dashed=1;" edge="1" parent="1" source="z1TU7799TZrfDQ--Ozhm-8" target="z1TU7799TZrfDQ--Ozhm-9">
          <mxGeometry relative="1" as="geometry" />
        </mxCell>
        <mxCell id="z1TU7799TZrfDQ--Ozhm-8" value="Cloud DB" style="text;html=1;align=center;verticalAlign=middle;whiteSpace=wrap;rounded=0;" vertex="1" parent="1">
          <mxGeometry x="220" y="310" width="60" height="30" as="geometry" />
        </mxCell>
        <mxCell id="z1TU7799TZrfDQ--Ozhm-14" style="edgeStyle=orthogonalEdgeStyle;rounded=0;orthogonalLoop=1;jettySize=auto;html=1;entryX=1;entryY=0;entryDx=0;entryDy=0;exitX=1;exitY=0.5;exitDx=0;exitDy=0;strokeColor=default;strokeWidth=2;" edge="1" parent="1" source="z1TU7799TZrfDQ--Ozhm-9" target="z1TU7799TZrfDQ--Ozhm-12">
          <mxGeometry relative="1" as="geometry">
            <Array as="points">
              <mxPoint x="480" y="320" />
              <mxPoint x="480" y="440" />
            </Array>
          </mxGeometry>
        </mxCell>
        <mxCell id="z1TU7799TZrfDQ--Ozhm-9" value="" style="rounded=1;whiteSpace=wrap;html=1;" vertex="1" parent="1">
          <mxGeometry x="340" y="290" width="120" height="60" as="geometry" />
        </mxCell>
        <mxCell id="z1TU7799TZrfDQ--Ozhm-10" value="Machine Learning Analytics" style="text;html=1;align=center;verticalAlign=middle;whiteSpace=wrap;rounded=0;" vertex="1" parent="1">
          <mxGeometry x="350" y="305" width="100" height="30" as="geometry" />
        </mxCell>
        <mxCell id="z1TU7799TZrfDQ--Ozhm-11" value="" style="shape=cylinder3;whiteSpace=wrap;html=1;boundedLbl=1;backgroundOutline=1;size=15;" vertex="1" parent="1">
          <mxGeometry x="350" y="400" width="60" height="80" as="geometry" />
        </mxCell>
        <mxCell id="z1TU7799TZrfDQ--Ozhm-12" value="Mongo DB" style="text;html=1;align=center;verticalAlign=middle;whiteSpace=wrap;rounded=0;" vertex="1" parent="1">
          <mxGeometry x="350" y="440" width="60" height="30" as="geometry" />
        </mxCell>
        <mxCell id="z1TU7799TZrfDQ--Ozhm-15" value="&lt;font style=&quot;font-size: 14px;&quot;&gt;Private Zone&lt;/font&gt;" style="text;html=1;align=center;verticalAlign=middle;whiteSpace=wrap;rounded=0;" vertex="1" parent="1">
          <mxGeometry x="285" y="210" width="130" height="30" as="geometry" />
        </mxCell>
        <mxCell id="z1TU7799TZrfDQ--Ozhm-16" value="" style="rounded=0;whiteSpace=wrap;html=1;" vertex="1" parent="1">
          <mxGeometry x="510" y="200" width="180" height="380" as="geometry" />
        </mxCell>
        <mxCell id="z1TU7799TZrfDQ--Ozhm-17" value="&lt;font style=&quot;font-size: 14px;&quot;&gt;Authorized Zone&lt;/font&gt;" style="text;html=1;align=center;verticalAlign=middle;whiteSpace=wrap;rounded=0;" vertex="1" parent="1">
          <mxGeometry x="535" y="210" width="130" height="30" as="geometry" />
        </mxCell>
        <mxCell id="z1TU7799TZrfDQ--Ozhm-18" value="" style="shape=parallelogram;perimeter=parallelogramPerimeter;whiteSpace=wrap;html=1;fixedSize=1;" vertex="1" parent="1">
          <mxGeometry x="540" y="350" width="120" height="60" as="geometry" />
        </mxCell>
        <mxCell id="z1TU7799TZrfDQ--Ozhm-19" value="&lt;font style=&quot;font-size: 14px;&quot;&gt;Backend API&lt;/font&gt;" style="text;html=1;align=center;verticalAlign=middle;whiteSpace=wrap;rounded=0;" vertex="1" parent="1">
          <mxGeometry x="552.5" y="365" width="95" height="30" as="geometry" />
        </mxCell>
        <mxCell id="z1TU7799TZrfDQ--Ozhm-20" style="edgeStyle=orthogonalEdgeStyle;rounded=0;orthogonalLoop=1;jettySize=auto;html=1;entryX=0.375;entryY=0.992;entryDx=0;entryDy=0;entryPerimeter=0;dashed=1;dashPattern=8 8;" edge="1" parent="1" source="z1TU7799TZrfDQ--Ozhm-12" target="z1TU7799TZrfDQ--Ozhm-18">
          <mxGeometry relative="1" as="geometry" />
        </mxCell>
        <mxCell id="z1TU7799TZrfDQ--Ozhm-23" value="" style="rounded=0;whiteSpace=wrap;html=1;" vertex="1" parent="1">
          <mxGeometry x="705" y="200" width="220" height="380" as="geometry" />
        </mxCell>
        <mxCell id="z1TU7799TZrfDQ--Ozhm-24" value="&lt;font style=&quot;font-size: 14px;&quot;&gt;Public Zone&lt;/font&gt;" style="text;html=1;align=center;verticalAlign=middle;whiteSpace=wrap;rounded=0;" vertex="1" parent="1">
          <mxGeometry x="755" y="210" width="130" height="30" as="geometry" />
        </mxCell>
        <mxCell id="z1TU7799TZrfDQ--Ozhm-37" style="edgeStyle=orthogonalEdgeStyle;rounded=0;orthogonalLoop=1;jettySize=auto;html=1;entryX=0.5;entryY=0;entryDx=0;entryDy=0;" edge="1" parent="1" source="z1TU7799TZrfDQ--Ozhm-25" target="z1TU7799TZrfDQ--Ozhm-33">
          <mxGeometry relative="1" as="geometry" />
        </mxCell>
        <mxCell id="z1TU7799TZrfDQ--Ozhm-25" value="" style="shape=actor;whiteSpace=wrap;html=1;" vertex="1" parent="1">
          <mxGeometry x="790" y="260" width="50" height="60" as="geometry" />
        </mxCell>
        <mxCell id="z1TU7799TZrfDQ--Ozhm-39" style="edgeStyle=orthogonalEdgeStyle;rounded=0;orthogonalLoop=1;jettySize=auto;html=1;entryX=1;entryY=1;entryDx=0;entryDy=0;dashed=1;dashPattern=8 8;" edge="1" parent="1" source="z1TU7799TZrfDQ--Ozhm-33" target="z1TU7799TZrfDQ--Ozhm-18">
          <mxGeometry relative="1" as="geometry">
            <Array as="points">
              <mxPoint x="670" y="455" />
              <mxPoint x="670" y="401" />
            </Array>
          </mxGeometry>
        </mxCell>
        <mxCell id="z1TU7799TZrfDQ--Ozhm-33" value="" style="rounded=0;whiteSpace=wrap;html=1;" vertex="1" parent="1">
          <mxGeometry x="755" y="405" width="115" height="100" as="geometry" />
        </mxCell>
        <mxCell id="z1TU7799TZrfDQ--Ozhm-34" value="&lt;font style=&quot;font-size: 14px;&quot;&gt;User Interface&lt;/font&gt;" style="text;html=1;align=center;verticalAlign=middle;whiteSpace=wrap;rounded=0;" vertex="1" parent="1">
          <mxGeometry x="763.75" y="440" width="97.5" height="30" as="geometry" />
        </mxCell>
        <mxCell id="z1TU7799TZrfDQ--Ozhm-38" style="edgeStyle=orthogonalEdgeStyle;rounded=0;orthogonalLoop=1;jettySize=auto;html=1;entryX=0;entryY=0.335;entryDx=0;entryDy=0;entryPerimeter=0;" edge="1" parent="1" source="z1TU7799TZrfDQ--Ozhm-18" target="z1TU7799TZrfDQ--Ozhm-33">
          <mxGeometry relative="1" as="geometry" />
        </mxCell>
        <mxCell id="z1TU7799TZrfDQ--Ozhm-40" value="" style="endArrow=none;html=1;rounded=0;exitX=0.675;exitY=1.001;exitDx=0;exitDy=0;exitPerimeter=0;" edge="1" parent="1" source="z1TU7799TZrfDQ--Ozhm-1">
          <mxGeometry width="50" height="50" relative="1" as="geometry">
            <mxPoint x="620" y="470" as="sourcePoint" />
            <mxPoint x="696" y="150" as="targetPoint" />
          </mxGeometry>
        </mxCell>
        <mxCell id="z1TU7799TZrfDQ--Ozhm-41" value="&lt;font style=&quot;font-size: 14px;&quot;&gt;Open System&lt;/font&gt;" style="text;html=1;align=center;verticalAlign=middle;whiteSpace=wrap;rounded=0;" vertex="1" parent="1">
          <mxGeometry x="750" y="160" width="130" height="30" as="geometry" />
        </mxCell>
        <mxCell id="z1TU7799TZrfDQ--Ozhm-42" value="Logi in - RBAC" style="text;html=1;align=center;verticalAlign=middle;whiteSpace=wrap;rounded=0;" vertex="1" parent="1">
          <mxGeometry x="820" y="330" width="85" height="30" as="geometry" />
        </mxCell>
        <mxCell id="z1TU7799TZrfDQ--Ozhm-43" value="" style="rounded=0;whiteSpace=wrap;html=1;" vertex="1" parent="1">
          <mxGeometry x="190" y="610" width="270" height="120" as="geometry" />
        </mxCell>
        <mxCell id="z1TU7799TZrfDQ--Ozhm-44" value="&lt;font style=&quot;font-size: 13px;&quot;&gt;Legends&lt;/font&gt;" style="text;html=1;align=center;verticalAlign=middle;whiteSpace=wrap;rounded=0;" vertex="1" parent="1">
          <mxGeometry x="200" y="610" width="60" height="30" as="geometry" />
        </mxCell>
        <mxCell id="z1TU7799TZrfDQ--Ozhm-45" value="&lt;font&gt;Data Flow Private (READ-WRITE)&lt;/font&gt;" style="text;html=1;align=center;verticalAlign=middle;whiteSpace=wrap;rounded=0;" vertex="1" parent="1">
          <mxGeometry x="180" y="630" width="220" height="30" as="geometry" />
        </mxCell>
        <mxCell id="z1TU7799TZrfDQ--Ozhm-48" value="" style="endArrow=classic;html=1;rounded=0;strokeWidth=2;" edge="1" parent="1">
          <mxGeometry width="50" height="50" relative="1" as="geometry">
            <mxPoint x="390" y="644.5" as="sourcePoint" />
            <mxPoint x="450" y="644.5" as="targetPoint" />
          </mxGeometry>
        </mxCell>
        <mxCell id="z1TU7799TZrfDQ--Ozhm-49" value="&lt;font&gt;Data Flow Via Params&lt;/font&gt;" style="text;html=1;align=center;verticalAlign=middle;whiteSpace=wrap;rounded=0;" vertex="1" parent="1">
          <mxGeometry x="200" y="650" width="130" height="30" as="geometry" />
        </mxCell>
        <mxCell id="z1TU7799TZrfDQ--Ozhm-50" value="" style="endArrow=classic;html=1;rounded=0;dashed=1;dashPattern=8 8;" edge="1" parent="1">
          <mxGeometry width="50" height="50" relative="1" as="geometry">
            <mxPoint x="340" y="664.5" as="sourcePoint" />
            <mxPoint x="402.5" y="664.5" as="targetPoint" />
          </mxGeometry>
        </mxCell>
        <mxCell id="z1TU7799TZrfDQ--Ozhm-51" value="" style="endArrow=classic;html=1;rounded=0;dashed=1;" edge="1" parent="1">
          <mxGeometry width="50" height="50" relative="1" as="geometry">
            <mxPoint x="340" y="684.5" as="sourcePoint" />
            <mxPoint x="402.5" y="684.5" as="targetPoint" />
          </mxGeometry>
        </mxCell>
        <mxCell id="z1TU7799TZrfDQ--Ozhm-52" value="&lt;font&gt;Data Flow (PVT -&amp;nbsp; Read)&lt;/font&gt;" style="text;html=1;align=center;verticalAlign=middle;whiteSpace=wrap;rounded=0;" vertex="1" parent="1">
          <mxGeometry x="190" y="670" width="150" height="30" as="geometry" />
        </mxCell>
        <mxCell id="z1TU7799TZrfDQ--Ozhm-53" value="&lt;font&gt;Data Flow (Public - Read)&lt;/font&gt;" style="text;html=1;align=center;verticalAlign=middle;whiteSpace=wrap;rounded=0;" vertex="1" parent="1">
          <mxGeometry x="155" y="690" width="220" height="30" as="geometry" />
        </mxCell>
        <mxCell id="z1TU7799TZrfDQ--Ozhm-55" value="" style="endArrow=classic;html=1;rounded=0;strokeWidth=1;" edge="1" parent="1">
          <mxGeometry width="50" height="50" relative="1" as="geometry">
            <mxPoint x="340" y="704.5" as="sourcePoint" />
            <mxPoint x="400" y="704.5" as="targetPoint" />
          </mxGeometry>
        </mxCell>
        <mxCell id="z1TU7799TZrfDQ--Ozhm-58" value="" style="rounded=0;whiteSpace=wrap;html=1;" vertex="1" parent="1">
          <mxGeometry x="300" y="100" width="555" height="40" as="geometry" />
        </mxCell>
        <mxCell id="z1TU7799TZrfDQ--Ozhm-59" value="&lt;font style=&quot;font-size: 23px;&quot;&gt;End to End Architecture&lt;/font&gt;" style="text;html=1;align=center;verticalAlign=middle;whiteSpace=wrap;rounded=0;" vertex="1" parent="1">
          <mxGeometry x="473.75" y="105" width="252.5" height="30" as="geometry" />
        </mxCell>
      </root>
    </mxGraphModel>
  </diagram>
</mxfile>
